<svg xmlns="http://www.w3.org/2000/svg" viewBox="0 0 900.48 108.2"><defs><style>.cls-1{fill:#232026;}.cls-2{fill:#f83753;}.cls-3{fill:#fff;}</style></defs><g id="Layer_2" data-name="Layer 2"><g id="Capa_1" data-name="Capa 1"><path class="cls-1" d="M316,25.49c8.46,0,15.42,2.78,20.94,8.38s8.26,12.68,8.26,21.3-2.74,15.73-8.26,21.34S324.41,84.89,316,84.89,300.53,82.11,295,76.51s-8.27-12.72-8.27-21.34,2.75-15.7,8.27-21.3S307.49,25.49,316,25.49Zm0,46.05a13.58,13.58,0,0,0,10.57-4.61,17,17,0,0,0,4.09-11.76,17,17,0,0,0-4.09-11.76A13.55,13.55,0,0,0,316,38.84a13.33,13.33,0,0,0-10.49,4.57,17,17,0,0,0-4.09,11.76,17,17,0,0,0,4.09,11.76A13.36,13.36,0,0,0,316,71.54Z"/><path class="cls-1" d="M399.94,25.49c8.46,0,15.41,2.78,20.94,8.38s8.26,12.68,8.26,21.3-2.74,15.73-8.26,21.34-12.48,8.38-20.94,8.38S384.52,82.11,379,76.51s-8.27-12.72-8.27-21.34,2.74-15.7,8.27-21.3S391.47,25.49,399.94,25.49Zm0,46.05a13.6,13.6,0,0,0,10.57-4.61,17,17,0,0,0,4.09-11.76,17,17,0,0,0-4.09-11.76,13.56,13.56,0,0,0-10.57-4.57,13.31,13.31,0,0,0-10.49,4.57c-2.75,3.06-4.1,7-4.1,11.76s1.35,8.7,4.1,11.76A13.35,13.35,0,0,0,399.94,71.54Z"/><path class="cls-1" d="M480.9,26.68c8.07,0,14.74,2.66,20,8s7.83,12.16,7.83,20.47-2.62,15.14-7.83,20.46-11.88,8-20,8H456.74v-57Zm0,43.71a11.61,11.61,0,0,0,9.26-4.29,16.23,16.23,0,0,0,3.62-10.93,16.4,16.4,0,0,0-3.62-11A11.64,11.64,0,0,0,480.9,40h-9.57V70.39Z"/><path class="cls-1" d="M572.12,48.73v-22H586.7v57H572.12V62.76H550.9v20.9H536.32v-57H550.9v22Z"/><path class="cls-1" d="M643.39,25.49c8.47,0,15.42,2.78,20.94,8.38s8.27,12.68,8.27,21.3-2.74,15.73-8.27,21.34-12.47,8.38-20.94,8.38S628,82.11,622.45,76.51s-8.26-12.72-8.26-21.34,2.74-15.7,8.26-21.3S634.93,25.49,643.39,25.49Zm0,46.05A13.58,13.58,0,0,0,654,66.93a17,17,0,0,0,4.1-11.76A17,17,0,0,0,654,43.41a13.55,13.55,0,0,0-10.57-4.57,13.34,13.34,0,0,0-10.49,4.57,17,17,0,0,0-4.09,11.76,17,17,0,0,0,4.09,11.76A13.38,13.38,0,0,0,643.39,71.54Z"/><path class="cls-1" d="M725.19,84.89c-7.23,0-13.19-2.07-17.92-6.16a19.72,19.72,0,0,1-7.07-15.57V26.68h14.58V63.16a7.4,7.4,0,0,0,2.94,6,12.87,12.87,0,0,0,14.91,0,7.36,7.36,0,0,0,2.9-6V26.68h14.54V63.16a19.75,19.75,0,0,1-7,15.57C738.35,82.82,732.39,84.89,725.19,84.89Z"/><path class="cls-1" d="M821,55.05c3.66,2.82,5.49,6.71,5.49,11.76q0,8.88-6.8,13.47c-4.53,3.06-10.49,4.61-17.88,4.61a44.56,44.56,0,0,1-13.35-2.22,47,47,0,0,1-11.8-5.21L782,66a34.67,34.67,0,0,0,20.11,6,17.11,17.11,0,0,0,6.36-1.08c1.78-.67,2.7-1.75,2.7-3.22,0-1.23-.84-2.3-2.51-3.21a37.06,37.06,0,0,0-8.58-2.75c-7.19-1.62-12.67-3.85-16.37-6.71s-5.6-6.95-5.6-12.4a14.34,14.34,0,0,1,7-12.63q7-4.53,18.36-4.53a39.47,39.47,0,0,1,10.85,1.63,41.23,41.23,0,0,1,9.1,3.65l-4,12.28a31.73,31.73,0,0,0-16.33-4.57c-6.51,0-9.69,1.83-9.69,4.09,0,1.31.83,2.39,2.54,3.22a38.14,38.14,0,0,0,8.7,2.7C811.88,50,817.33,52.23,821,55.05Z"/><path class="cls-1" d="M868.33,62v8.39h32.15V83.66H853.75v-57h46V40H868.33V50.12h29V62Z"/><path class="cls-1" d="M242,26.1h-.56c0,9.83-7.12,17.35-16.62,17.39-9.71.08-16.95-7.24-17-17.07V26.1H193.19V82.63H207V51.68c6.73,4.58,14.64,5.93,23.35,4.54A29.13,29.13,0,0,0,242,51.72V82.63h13.85V26.1Z"/><path class="cls-1" d="M152.49,0a5.87,5.87,0,0,1,4.36,1.76,6.14,6.14,0,0,1,1.72,4.49,6.18,6.18,0,0,1-1.72,4.5,6.29,6.29,0,0,1-8.73,0,6.19,6.19,0,0,1-1.73-4.5,6.17,6.17,0,0,1,1.73-4.5A5.87,5.87,0,0,1,152.49,0Zm0,11.27a4.4,4.4,0,0,0,3.38-1.42,5.06,5.06,0,0,0,1.32-3.6,5.11,5.11,0,0,0-1.32-3.62,4.76,4.76,0,0,0-6.76,0,5.11,5.11,0,0,0-1.33,3.62,5.06,5.06,0,0,0,1.33,3.6A4.4,4.4,0,0,0,152.49,11.27Zm2.15-3.6.28,1.48a4.21,4.21,0,0,1-2,.47,3.62,3.62,0,0,1-2.59-.92,3.11,3.11,0,0,1-1-2.4,3.29,3.29,0,0,1,1-2.46,3.56,3.56,0,0,1,2.59-1,4.23,4.23,0,0,1,1.92.43l-.42,1.51a2.72,2.72,0,0,0-1.5-.43,1.86,1.86,0,0,0-1.42.55A1.93,1.93,0,0,0,151,6.3a1.69,1.69,0,0,0,.56,1.32,2.07,2.07,0,0,0,1.42.49A3.2,3.2,0,0,0,154.64,7.67Z"/><rect class="cls-2" y="1.45" width="160" height="106.75" rx="53.38"/><path class="cls-3" d="M124.47,32.72c-5.76-5.85-13-8.75-21.85-8.75s-16.09,2.9-21.86,8.75c-.36.36-.7.73-1,1.11-.34-.38-.68-.75-1-1.11-.69-.69-1.39-1.34-2.12-2C71.17,26.23,64.62,24,56.83,24,48,24,40.74,26.87,35,32.72S26.35,46,26.35,55,29.21,71.37,35,77.22,48,86,56.83,86c7.79,0,14.34-2.25,19.74-6.79a33.21,33.21,0,0,1-7.45-13.57,17.61,17.61,0,0,1-1.26,1.62,14.18,14.18,0,0,1-11,4.81,14,14,0,0,1-10.95-4.81C43,64,41.61,59.93,41.61,55S43,45.87,45.88,42.68a13.89,13.89,0,0,1,10.95-4.77,14.11,14.11,0,0,1,11,4.77,15,15,0,0,1,1.26,1.62,18.35,18.35,0,0,1,3,10.65c0,8.44,2.51,15.5,7.59,21.17.33.37.67.74,1,1.1,5.77,5.85,13,8.75,21.86,8.75s16.09-2.9,21.85-8.75S133.1,64,133.1,55,130.24,38.57,124.47,32.72ZM113.65,67.23a14.18,14.18,0,0,1-11,4.81,14,14,0,0,1-11-4.81C88.81,64,87.4,59.93,87.4,55s1.41-9.08,4.27-12.27a13.89,13.89,0,0,1,11-4.77,14.11,14.11,0,0,1,11,4.77c2.86,3.19,4.27,7.29,4.27,12.27S116.51,64,113.65,67.23Z"/></g></g></svg>